<?xml version="1.0" encoding="UTF-8" standalone="no"?>
<!DOCTYPE svg PUBLIC "-//W3C//DTD SVG 1.1//EN"
 "http://www.w3.org/Graphics/SVG/1.1/DTD/svg11.dtd">
<!-- Generated by graphviz version 3.0.0 (20220226.1711)
 -->
<!-- Pages: 1 -->
<svg width="1125pt" height="500pt"
 viewBox="0.00 0.00 1125.00 500.00" xmlns="http://www.w3.org/2000/svg" xmlns:xlink="http://www.w3.org/1999/xlink">
<g id="graph0" class="graph" transform="scale(1 1) rotate(0) translate(4 496)">
<polygon fill="#ffffff" stroke="transparent" points="-4,4 -4,-496 1121,-496 1121,4 -4,4"/>
<!-- X1 -->
<g id="node1" class="node">
<title>X1</title>
<polygon fill="#ffffff" stroke="black" points="187,-296 0,-296 0,-20 187,-20 187,-296"/>
<polygon fill="none" stroke="black" points="0.5,-273 0.5,-296 187.5,-296 187.5,-273 0.5,-273"/>
<text text-anchor="start" x="84.5" y="-280.8" font-family="arial" font-size="14.00">X1</text>
<polygon fill="none" stroke="black" points="0.5,-250 0.5,-273 89.5,-273 89.5,-250 0.5,-250"/>
<text text-anchor="start" x="29.5" y="-257.8" font-family="arial" font-size="14.00">male</text>
<polygon fill="none" stroke="black" points="89.5,-250 89.5,-273 187.5,-273 187.5,-250 89.5,-250"/>
<text text-anchor="start" x="118.5" y="-257.8" font-family="arial" font-size="14.00">10&#45;pin</text>
<polygon fill="none" stroke="black" points="0.5,-227 0.5,-250 162.5,-250 162.5,-227 0.5,-227"/>
<text text-anchor="start" x="53" y="-234.8" font-family="arial" font-size="14.00">CS_TC2</text>
<polygon fill="none" stroke="black" points="162.5,-227 162.5,-250 187.5,-250 187.5,-227 162.5,-227"/>
<text text-anchor="start" x="170.5" y="-234.8" font-family="arial" font-size="14.00">1</text>
<polygon fill="none" stroke="black" points="0.5,-204 0.5,-227 162.5,-227 162.5,-204 0.5,-204"/>
<text text-anchor="start" x="53" y="-211.8" font-family="arial" font-size="14.00">CS_TC1</text>
<polygon fill="none" stroke="black" points="162.5,-204 162.5,-227 187.5,-227 187.5,-204 162.5,-204"/>
<text text-anchor="start" x="170.5" y="-211.8" font-family="arial" font-size="14.00">2</text>
<polygon fill="none" stroke="black" points="0.5,-181 0.5,-204 162.5,-204 162.5,-181 0.5,-181"/>
<text text-anchor="start" x="63" y="-188.8" font-family="arial" font-size="14.00">MISO</text>
<polygon fill="none" stroke="black" points="162.5,-181 162.5,-204 187.5,-204 187.5,-181 162.5,-181"/>
<text text-anchor="start" x="170.5" y="-188.8" font-family="arial" font-size="14.00">3</text>
<polygon fill="none" stroke="black" points="0.5,-158 0.5,-181 162.5,-181 162.5,-158 0.5,-158"/>
<text text-anchor="start" x="66" y="-165.8" font-family="arial" font-size="14.00">SCK</text>
<polygon fill="none" stroke="black" points="162.5,-158 162.5,-181 187.5,-181 187.5,-158 162.5,-158"/>
<text text-anchor="start" x="170.5" y="-165.8" font-family="arial" font-size="14.00">4</text>
<polygon fill="none" stroke="black" points="0.5,-135 0.5,-158 162.5,-158 162.5,-135 0.5,-135"/>
<text text-anchor="start" x="10" y="-142.8" font-family="arial" font-size="14.00">CS_RSC_TOTAL_EE</text>
<polygon fill="none" stroke="black" points="162.5,-135 162.5,-158 187.5,-158 187.5,-135 162.5,-135"/>
<text text-anchor="start" x="170.5" y="-142.8" font-family="arial" font-size="14.00">5</text>
<polygon fill="none" stroke="black" points="0.5,-112 0.5,-135 162.5,-135 162.5,-112 0.5,-112"/>
<text text-anchor="start" x="23.5" y="-119.8" font-family="arial" font-size="14.00">DR_RSC_TOTAL</text>
<polygon fill="none" stroke="black" points="162.5,-112 162.5,-135 187.5,-135 187.5,-112 162.5,-112"/>
<text text-anchor="start" x="170.5" y="-119.8" font-family="arial" font-size="14.00">6</text>
<polygon fill="none" stroke="black" points="0.5,-89 0.5,-112 162.5,-112 162.5,-89 0.5,-89"/>
<text text-anchor="start" x="68" y="-96.8" font-family="arial" font-size="14.00">3V3</text>
<polygon fill="none" stroke="black" points="162.5,-89 162.5,-112 187.5,-112 187.5,-89 162.5,-89"/>
<text text-anchor="start" x="170.5" y="-96.8" font-family="arial" font-size="14.00">7</text>
<polygon fill="none" stroke="black" points="0.5,-66 0.5,-89 162.5,-89 162.5,-66 0.5,-66"/>
<text text-anchor="start" x="63" y="-73.8" font-family="arial" font-size="14.00">MOSI</text>
<polygon fill="none" stroke="black" points="162.5,-66 162.5,-89 187.5,-89 187.5,-66 162.5,-66"/>
<text text-anchor="start" x="170.5" y="-73.8" font-family="arial" font-size="14.00">8</text>
<polygon fill="none" stroke="black" points="0.5,-43 0.5,-66 162.5,-66 162.5,-43 0.5,-43"/>
<text text-anchor="start" x="65.5" y="-50.8" font-family="arial" font-size="14.00">GND</text>
<polygon fill="none" stroke="black" points="162.5,-43 162.5,-66 187.5,-66 187.5,-43 162.5,-43"/>
<text text-anchor="start" x="170.5" y="-50.8" font-family="arial" font-size="14.00">9</text>
<polygon fill="none" stroke="black" points="0.5,-20 0.5,-43 162.5,-43 162.5,-20 0.5,-20"/>
<text text-anchor="start" x="4.5" y="-27.8" font-family="arial" font-size="14.00">CS_RSC_TOTAL_ADC</text>
<polygon fill="none" stroke="black" points="162.5,-20 162.5,-43 187.5,-43 187.5,-20 162.5,-20"/>
<text text-anchor="start" x="166.5" y="-27.8" font-family="arial" font-size="14.00">10</text>
</g>
<!-- W1 -->
<g id="node5" class="node">
<title>W1</title>
<polygon fill="#ffffff" stroke="black" points="786,-334 331,-334 331,0 786,0 786,-334"/>
<polygon fill="none" stroke="black" points="331.5,-311 331.5,-334 786.5,-334 786.5,-311 331.5,-311"/>
<text text-anchor="start" x="547.5" y="-318.8" font-family="arial" font-size="14.00">W1</text>
<polygon fill="none" stroke="black" points="331.5,-288 331.5,-311 558.5,-311 558.5,-288 331.5,-288"/>
<text text-anchor="start" x="433" y="-295.8" font-family="arial" font-size="14.00">10x</text>
<polygon fill="none" stroke="black" points="558.5,-288 558.5,-311 786.5,-311 786.5,-288 558.5,-288"/>
<text text-anchor="start" x="660" y="-295.8" font-family="arial" font-size="14.00">1 m</text>
<text text-anchor="start" x="429.5" y="-274.8" font-family="arial" font-size="14.00"> </text>
<text text-anchor="start" x="386" y="-255.8" font-family="arial" font-size="14.00">X1:1:CS_TC2</text>
<text text-anchor="start" x="537.5" y="-255.8" font-family="arial" font-size="14.00"> &#160;&#160;&#160;&#160;1 &#160;&#160;&#160;</text>
<text text-anchor="start" x="641" y="-255.8" font-family="arial" font-size="14.00">X2:1:CS_TC2</text>
<polygon fill="#000000" stroke="transparent" points="331.5,-248 331.5,-250 786.5,-250 786.5,-248 331.5,-248"/>
<polygon fill="#ffffff" stroke="transparent" points="331.5,-246 331.5,-248 786.5,-248 786.5,-246 331.5,-246"/>
<polygon fill="#000000" stroke="transparent" points="331.5,-244 331.5,-246 786.5,-246 786.5,-244 331.5,-244"/>
<text text-anchor="start" x="386" y="-230.8" font-family="arial" font-size="14.00">X1:2:CS_TC1</text>
<text text-anchor="start" x="537.5" y="-230.8" font-family="arial" font-size="14.00"> &#160;&#160;&#160;&#160;2 &#160;&#160;&#160;</text>
<text text-anchor="start" x="641" y="-230.8" font-family="arial" font-size="14.00">X2:2:CS_TC1</text>
<polygon fill="#000000" stroke="transparent" points="331.5,-223 331.5,-225 786.5,-225 786.5,-223 331.5,-223"/>
<polygon fill="#ffffff" stroke="transparent" points="331.5,-221 331.5,-223 786.5,-223 786.5,-221 331.5,-221"/>
<polygon fill="#000000" stroke="transparent" points="331.5,-219 331.5,-221 786.5,-221 786.5,-219 331.5,-219"/>
<text text-anchor="start" x="396" y="-205.8" font-family="arial" font-size="14.00">X1:3:MISO</text>
<text text-anchor="start" x="537.5" y="-205.8" font-family="arial" font-size="14.00"> &#160;&#160;&#160;&#160;3 &#160;&#160;&#160;</text>
<text text-anchor="start" x="651" y="-205.8" font-family="arial" font-size="14.00">X2:3:MISO</text>
<polygon fill="#000000" stroke="transparent" points="331.5,-198 331.5,-200 786.5,-200 786.5,-198 331.5,-198"/>
<polygon fill="#ffffff" stroke="transparent" points="331.5,-196 331.5,-198 786.5,-198 786.5,-196 331.5,-196"/>
<polygon fill="#000000" stroke="transparent" points="331.5,-194 331.5,-196 786.5,-196 786.5,-194 331.5,-194"/>
<text text-anchor="start" x="399.5" y="-180.8" font-family="arial" font-size="14.00">X1:4:SCK</text>
<text text-anchor="start" x="537.5" y="-180.8" font-family="arial" font-size="14.00"> &#160;&#160;&#160;&#160;4 &#160;&#160;&#160;</text>
<text text-anchor="start" x="654.5" y="-180.8" font-family="arial" font-size="14.00">X2:4:SCK</text>
<polygon fill="#000000" stroke="transparent" points="331.5,-173 331.5,-175 786.5,-175 786.5,-173 331.5,-173"/>
<polygon fill="#ffffff" stroke="transparent" points="331.5,-171 331.5,-173 786.5,-173 786.5,-171 331.5,-171"/>
<polygon fill="#000000" stroke="transparent" points="331.5,-169 331.5,-171 786.5,-171 786.5,-169 331.5,-169"/>
<text text-anchor="start" x="343" y="-155.8" font-family="arial" font-size="14.00">X1:5:CS_RSC_TOTAL_EE</text>
<text text-anchor="start" x="537.5" y="-155.8" font-family="arial" font-size="14.00"> &#160;&#160;&#160;&#160;5 &#160;&#160;&#160;</text>
<text text-anchor="start" x="598" y="-155.8" font-family="arial" font-size="14.00">X2:5:CS_RSC_TOTAL_EE</text>
<polygon fill="#000000" stroke="transparent" points="331.5,-148 331.5,-150 786.5,-150 786.5,-148 331.5,-148"/>
<polygon fill="#ffffff" stroke="transparent" points="331.5,-146 331.5,-148 786.5,-148 786.5,-146 331.5,-146"/>
<polygon fill="#000000" stroke="transparent" points="331.5,-144 331.5,-146 786.5,-146 786.5,-144 331.5,-144"/>
<text text-anchor="start" x="356.5" y="-130.8" font-family="arial" font-size="14.00">X1:6:DR_RSC_TOTAL</text>
<text text-anchor="start" x="537.5" y="-130.8" font-family="arial" font-size="14.00"> &#160;&#160;&#160;&#160;6 &#160;&#160;&#160;</text>
<text text-anchor="start" x="611.5" y="-130.8" font-family="arial" font-size="14.00">X2:6:DR_RSC_TOTAL</text>
<polygon fill="#000000" stroke="transparent" points="331.5,-123 331.5,-125 786.5,-125 786.5,-123 331.5,-123"/>
<polygon fill="#ffffff" stroke="transparent" points="331.5,-121 331.5,-123 786.5,-123 786.5,-121 331.5,-121"/>
<polygon fill="#000000" stroke="transparent" points="331.5,-119 331.5,-121 786.5,-121 786.5,-119 331.5,-119"/>
<text text-anchor="start" x="401" y="-105.8" font-family="arial" font-size="14.00">X1:7:3V3</text>
<text text-anchor="start" x="537.5" y="-105.8" font-family="arial" font-size="14.00"> &#160;&#160;&#160;&#160;7 &#160;&#160;&#160;</text>
<text text-anchor="start" x="656" y="-105.8" font-family="arial" font-size="14.00">X2:7:3V3</text>
<polygon fill="#000000" stroke="transparent" points="331.5,-98 331.5,-100 786.5,-100 786.5,-98 331.5,-98"/>
<polygon fill="#ffffff" stroke="transparent" points="331.5,-96 331.5,-98 786.5,-98 786.5,-96 331.5,-96"/>
<polygon fill="#000000" stroke="transparent" points="331.5,-94 331.5,-96 786.5,-96 786.5,-94 331.5,-94"/>
<text text-anchor="start" x="396" y="-80.8" font-family="arial" font-size="14.00">X1:8:MOSI</text>
<text text-anchor="start" x="537.5" y="-80.8" font-family="arial" font-size="14.00"> &#160;&#160;&#160;&#160;8 &#160;&#160;&#160;</text>
<text text-anchor="start" x="651" y="-80.8" font-family="arial" font-size="14.00">X2:8:MOSI</text>
<polygon fill="#000000" stroke="transparent" points="331.5,-73 331.5,-75 786.5,-75 786.5,-73 331.5,-73"/>
<polygon fill="#ffffff" stroke="transparent" points="331.5,-71 331.5,-73 786.5,-73 786.5,-71 331.5,-71"/>
<polygon fill="#000000" stroke="transparent" points="331.5,-69 331.5,-71 786.5,-71 786.5,-69 331.5,-69"/>
<text text-anchor="start" x="398.5" y="-55.8" font-family="arial" font-size="14.00">X1:9:GND</text>
<text text-anchor="start" x="537.5" y="-55.8" font-family="arial" font-size="14.00"> &#160;&#160;&#160;&#160;9 &#160;&#160;&#160;</text>
<text text-anchor="start" x="653.5" y="-55.8" font-family="arial" font-size="14.00">X2:9:GND</text>
<polygon fill="#000000" stroke="transparent" points="331.5,-48 331.5,-50 786.5,-50 786.5,-48 331.5,-48"/>
<polygon fill="#ffffff" stroke="transparent" points="331.5,-46 331.5,-48 786.5,-48 786.5,-46 331.5,-46"/>
<polygon fill="#000000" stroke="transparent" points="331.5,-44 331.5,-46 786.5,-46 786.5,-44 331.5,-44"/>
<text text-anchor="start" x="333.5" y="-30.8" font-family="arial" font-size="14.00">X1:10:CS_RSC_TOTAL_ADC</text>
<text text-anchor="start" x="533.5" y="-30.8" font-family="arial" font-size="14.00"> &#160;&#160;&#160;&#160;10 &#160;&#160;&#160;</text>
<text text-anchor="start" x="588.5" y="-30.8" font-family="arial" font-size="14.00">X2:10:CS_RSC_TOTAL_ADC</text>
<polygon fill="#000000" stroke="transparent" points="331.5,-23 331.5,-25 786.5,-25 786.5,-23 331.5,-23"/>
<polygon fill="#ffffff" stroke="transparent" points="331.5,-21 331.5,-23 786.5,-23 786.5,-21 331.5,-21"/>
<polygon fill="#000000" stroke="transparent" points="331.5,-19 331.5,-21 786.5,-21 786.5,-19 331.5,-19"/>
<text text-anchor="start" x="429.5" y="-5.8" font-family="arial" font-size="14.00"> </text>
</g>
<!-- X1&#45;&#45;W1 -->
<g id="edge1" class="edge">
<title>X1:e&#45;&#45;W1:w</title>
<path fill="none" stroke="#000000" stroke-width="2" d="M187,-237C252,-237.22 267.8,-245.22 331,-245"/>
<path fill="none" stroke="#ffffff" stroke-width="2" d="M187,-239C251.1,-239 266.9,-247 331,-247"/>
<path fill="none" stroke="#000000" stroke-width="2" d="M187,-241C250.2,-240.78 266,-248.78 331,-249"/>
</g>
<!-- X1&#45;&#45;W1 -->
<g id="edge3" class="edge">
<title>X1:e&#45;&#45;W1:w</title>
<path fill="none" stroke="#000000" stroke-width="2" d="M187,-214C251.76,-214.13 267.65,-220.13 331,-220"/>
<path fill="none" stroke="#ffffff" stroke-width="2" d="M187,-216C251.06,-216 266.94,-222 331,-222"/>
<path fill="none" stroke="#000000" stroke-width="2" d="M187,-218C250.35,-217.87 266.24,-223.87 331,-224"/>
</g>
<!-- X1&#45;&#45;W1 -->
<g id="edge5" class="edge">
<title>X1:e&#45;&#45;W1:w</title>
<path fill="none" stroke="#000000" stroke-width="2" d="M187,-191C251.51,-191.06 267.46,-195.06 331,-195"/>
<path fill="none" stroke="#ffffff" stroke-width="2" d="M187,-193C251.02,-193 266.98,-197 331,-197"/>
<path fill="none" stroke="#000000" stroke-width="2" d="M187,-195C250.54,-194.94 266.49,-198.94 331,-199"/>
</g>
<!-- X1&#45;&#45;W1 -->
<g id="edge7" class="edge">
<title>X1:e&#45;&#45;W1:w</title>
<path fill="none" stroke="#000000" stroke-width="2" d="M187,-168C251.25,-168.02 267.24,-170.02 331,-170"/>
<path fill="none" stroke="#ffffff" stroke-width="2" d="M187,-170C251.01,-170 266.99,-172 331,-172"/>
<path fill="none" stroke="#000000" stroke-width="2" d="M187,-172C250.76,-171.98 266.75,-173.98 331,-174"/>
</g>
<!-- X1&#45;&#45;W1 -->
<g id="edge9" class="edge">
<title>X1:e&#45;&#45;W1:w</title>
<path fill="none" stroke="#000000" stroke-width="2" d="M187,-144C251.13,-144 267.12,-145 331,-145"/>
<path fill="none" stroke="#ffffff" stroke-width="2" d="M187,-146C251,-146 267,-147 331,-147"/>
<path fill="none" stroke="#000000" stroke-width="2" d="M187,-148C250.88,-148 266.87,-149 331,-149"/>
</g>
<!-- X1&#45;&#45;W1 -->
<g id="edge11" class="edge">
<title>X1:e&#45;&#45;W1:w</title>
<path fill="none" stroke="#000000" stroke-width="2" d="M187,-121C250.88,-121 266.87,-120 331,-120"/>
<path fill="none" stroke="#ffffff" stroke-width="2" d="M187,-123C251,-123 267,-122 331,-122"/>
<path fill="none" stroke="#000000" stroke-width="2" d="M187,-125C251.13,-125 267.12,-124 331,-124"/>
</g>
<!-- X1&#45;&#45;W1 -->
<g id="edge13" class="edge">
<title>X1:e&#45;&#45;W1:w</title>
<path fill="none" stroke="#000000" stroke-width="2" d="M187,-98C250.64,-98.03 266.62,-95.03 331,-95"/>
<path fill="none" stroke="#ffffff" stroke-width="2" d="M187,-100C251.01,-100 266.99,-97 331,-97"/>
<path fill="none" stroke="#000000" stroke-width="2" d="M187,-102C251.38,-101.97 267.36,-98.97 331,-99"/>
</g>
<!-- X1&#45;&#45;W1 -->
<g id="edge15" class="edge">
<title>X1:e&#45;&#45;W1:w</title>
<path fill="none" stroke="#000000" stroke-width="2" d="M187,-75C250.44,-75.09 266.36,-70.09 331,-70"/>
<path fill="none" stroke="#ffffff" stroke-width="2" d="M187,-77C251.04,-77 266.96,-72 331,-72"/>
<path fill="none" stroke="#000000" stroke-width="2" d="M187,-79C251.64,-78.91 267.56,-73.91 331,-74"/>
</g>
<!-- X1&#45;&#45;W1 -->
<g id="edge17" class="edge">
<title>X1:e&#45;&#45;W1:w</title>
<path fill="none" stroke="#000000" stroke-width="2" d="M187,-52C250.27,-52.17 266.12,-45.17 331,-45"/>
<path fill="none" stroke="#ffffff" stroke-width="2" d="M187,-54C251.08,-54 266.92,-47 331,-47"/>
<path fill="none" stroke="#000000" stroke-width="2" d="M187,-56C251.88,-55.83 267.73,-48.83 331,-49"/>
</g>
<!-- X1&#45;&#45;W1 -->
<g id="edge19" class="edge">
<title>X1:e&#45;&#45;W1:w</title>
<path fill="none" stroke="#000000" stroke-width="2" d="M187,-29C250.13,-29.26 265.88,-20.26 331,-20"/>
<path fill="none" stroke="#ffffff" stroke-width="2" d="M187,-31C251.12,-31 266.88,-22 331,-22"/>
<path fill="none" stroke="#000000" stroke-width="2" d="M187,-33C252.12,-32.74 267.87,-23.74 331,-24"/>
</g>
<!-- X2 -->
<g id="node2" class="node">
<title>X2</title>
<polygon fill="#ffffff" stroke="black" points="1117,-296 930,-296 930,-20 1117,-20 1117,-296"/>
<polygon fill="none" stroke="black" points="930.5,-273 930.5,-296 1117.5,-296 1117.5,-273 930.5,-273"/>
<text text-anchor="start" x="1014.5" y="-280.8" font-family="arial" font-size="14.00">X2</text>
<polygon fill="none" stroke="black" points="930.5,-250 930.5,-273 1019.5,-273 1019.5,-250 930.5,-250"/>
<text text-anchor="start" x="959.5" y="-257.8" font-family="arial" font-size="14.00">male</text>
<polygon fill="none" stroke="black" points="1019.5,-250 1019.5,-273 1117.5,-273 1117.5,-250 1019.5,-250"/>
<text text-anchor="start" x="1048.5" y="-257.8" font-family="arial" font-size="14.00">10&#45;pin</text>
<polygon fill="none" stroke="black" points="930.5,-227 930.5,-250 955.5,-250 955.5,-227 930.5,-227"/>
<text text-anchor="start" x="938.5" y="-234.8" font-family="arial" font-size="14.00">1</text>
<polygon fill="none" stroke="black" points="955.5,-227 955.5,-250 1117.5,-250 1117.5,-227 955.5,-227"/>
<text text-anchor="start" x="1008" y="-234.8" font-family="arial" font-size="14.00">CS_TC2</text>
<polygon fill="none" stroke="black" points="930.5,-204 930.5,-227 955.5,-227 955.5,-204 930.5,-204"/>
<text text-anchor="start" x="938.5" y="-211.8" font-family="arial" font-size="14.00">2</text>
<polygon fill="none" stroke="black" points="955.5,-204 955.5,-227 1117.5,-227 1117.5,-204 955.5,-204"/>
<text text-anchor="start" x="1008" y="-211.8" font-family="arial" font-size="14.00">CS_TC1</text>
<polygon fill="none" stroke="black" points="930.5,-181 930.5,-204 955.5,-204 955.5,-181 930.5,-181"/>
<text text-anchor="start" x="938.5" y="-188.8" font-family="arial" font-size="14.00">3</text>
<polygon fill="none" stroke="black" points="955.5,-181 955.5,-204 1117.5,-204 1117.5,-181 955.5,-181"/>
<text text-anchor="start" x="1018" y="-188.8" font-family="arial" font-size="14.00">MISO</text>
<polygon fill="none" stroke="black" points="930.5,-158 930.5,-181 955.5,-181 955.5,-158 930.5,-158"/>
<text text-anchor="start" x="938.5" y="-165.8" font-family="arial" font-size="14.00">4</text>
<polygon fill="none" stroke="black" points="955.5,-158 955.5,-181 1117.5,-181 1117.5,-158 955.5,-158"/>
<text text-anchor="start" x="1021" y="-165.8" font-family="arial" font-size="14.00">SCK</text>
<polygon fill="none" stroke="black" points="930.5,-135 930.5,-158 955.5,-158 955.5,-135 930.5,-135"/>
<text text-anchor="start" x="938.5" y="-142.8" font-family="arial" font-size="14.00">5</text>
<polygon fill="none" stroke="black" points="955.5,-135 955.5,-158 1117.5,-158 1117.5,-135 955.5,-135"/>
<text text-anchor="start" x="965" y="-142.8" font-family="arial" font-size="14.00">CS_RSC_TOTAL_EE</text>
<polygon fill="none" stroke="black" points="930.5,-112 930.5,-135 955.5,-135 955.5,-112 930.5,-112"/>
<text text-anchor="start" x="938.5" y="-119.8" font-family="arial" font-size="14.00">6</text>
<polygon fill="none" stroke="black" points="955.5,-112 955.5,-135 1117.5,-135 1117.5,-112 955.5,-112"/>
<text text-anchor="start" x="978.5" y="-119.8" font-family="arial" font-size="14.00">DR_RSC_TOTAL</text>
<polygon fill="none" stroke="black" points="930.5,-89 930.5,-112 955.5,-112 955.5,-89 930.5,-89"/>
<text text-anchor="start" x="938.5" y="-96.8" font-family="arial" font-size="14.00">7</text>
<polygon fill="none" stroke="black" points="955.5,-89 955.5,-112 1117.5,-112 1117.5,-89 955.5,-89"/>
<text text-anchor="start" x="1023" y="-96.8" font-family="arial" font-size="14.00">3V3</text>
<polygon fill="none" stroke="black" points="930.5,-66 930.5,-89 955.5,-89 955.5,-66 930.5,-66"/>
<text text-anchor="start" x="938.5" y="-73.8" font-family="arial" font-size="14.00">8</text>
<polygon fill="none" stroke="black" points="955.5,-66 955.5,-89 1117.5,-89 1117.5,-66 955.5,-66"/>
<text text-anchor="start" x="1018" y="-73.8" font-family="arial" font-size="14.00">MOSI</text>
<polygon fill="none" stroke="black" points="930.5,-43 930.5,-66 955.5,-66 955.5,-43 930.5,-43"/>
<text text-anchor="start" x="938.5" y="-50.8" font-family="arial" font-size="14.00">9</text>
<polygon fill="none" stroke="black" points="955.5,-43 955.5,-66 1117.5,-66 1117.5,-43 955.5,-43"/>
<text text-anchor="start" x="1020.5" y="-50.8" font-family="arial" font-size="14.00">GND</text>
<polygon fill="none" stroke="black" points="930.5,-20 930.5,-43 955.5,-43 955.5,-20 930.5,-20"/>
<text text-anchor="start" x="934.5" y="-27.8" font-family="arial" font-size="14.00">10</text>
<polygon fill="none" stroke="black" points="955.5,-20 955.5,-43 1117.5,-43 1117.5,-20 955.5,-20"/>
<text text-anchor="start" x="959.5" y="-27.8" font-family="arial" font-size="14.00">CS_RSC_TOTAL_ADC</text>
</g>
<!-- X3 -->
<g id="node3" class="node">
<title>X3</title>
<polygon fill="#ffffff" stroke="black" points="1069.5,-462 977.5,-462 977.5,-370 1069.5,-370 1069.5,-462"/>
<polygon fill="none" stroke="black" points="977.5,-439 977.5,-462 1069.5,-462 1069.5,-439 977.5,-439"/>
<text text-anchor="start" x="1014" y="-446.8" font-family="arial" font-size="14.00">X3</text>
<polygon fill="none" stroke="black" points="977.5,-416 977.5,-439 1029.5,-439 1029.5,-416 977.5,-416"/>
<text text-anchor="start" x="981.5" y="-423.8" font-family="arial" font-size="14.00">female</text>
<polygon fill="none" stroke="black" points="1029.5,-416 1029.5,-439 1069.5,-439 1069.5,-416 1029.5,-416"/>
<text text-anchor="start" x="1033.5" y="-423.8" font-family="arial" font-size="14.00">2&#45;pin</text>
<polygon fill="none" stroke="black" points="977.5,-393 977.5,-416 1009.5,-416 1009.5,-393 977.5,-393"/>
<text text-anchor="start" x="989" y="-400.8" font-family="arial" font-size="14.00">1</text>
<polygon fill="none" stroke="black" points="1009.5,-393 1009.5,-416 1069.5,-416 1069.5,-393 1009.5,-393"/>
<text text-anchor="start" x="1021" y="-400.8" font-family="arial" font-size="14.00">TC1+</text>
<polygon fill="none" stroke="black" points="977.5,-370 977.5,-393 1009.5,-393 1009.5,-370 977.5,-370"/>
<text text-anchor="start" x="989" y="-377.8" font-family="arial" font-size="14.00">2</text>
<polygon fill="none" stroke="black" points="1009.5,-370 1009.5,-393 1069.5,-393 1069.5,-370 1009.5,-370"/>
<text text-anchor="start" x="1023" y="-377.8" font-family="arial" font-size="14.00">TC1&#45;</text>
</g>
<!-- X4 -->
<g id="node4" class="node">
<title>X4</title>
<polygon fill="#ffffff" stroke="black" points="133,-462 54,-462 54,-370 133,-370 133,-462"/>
<polygon fill="none" stroke="black" points="54.5,-439 54.5,-462 133.5,-462 133.5,-439 54.5,-439"/>
<text text-anchor="start" x="84.5" y="-446.8" font-family="arial" font-size="14.00">X4</text>
<polygon fill="none" stroke="black" points="54.5,-416 54.5,-439 93.5,-439 93.5,-416 54.5,-416"/>
<text text-anchor="start" x="58.5" y="-423.8" font-family="arial" font-size="14.00">male</text>
<polygon fill="none" stroke="black" points="93.5,-416 93.5,-439 133.5,-439 133.5,-416 93.5,-416"/>
<text text-anchor="start" x="97.5" y="-423.8" font-family="arial" font-size="14.00">2&#45;pin</text>
<polygon fill="none" stroke="black" points="54.5,-393 54.5,-416 108.5,-416 108.5,-393 54.5,-393"/>
<text text-anchor="start" x="63" y="-400.8" font-family="arial" font-size="14.00">TC1+</text>
<polygon fill="none" stroke="black" points="108.5,-393 108.5,-416 133.5,-416 133.5,-393 108.5,-393"/>
<text text-anchor="start" x="116.5" y="-400.8" font-family="arial" font-size="14.00">1</text>
<polygon fill="none" stroke="black" points="54.5,-370 54.5,-393 108.5,-393 108.5,-370 54.5,-370"/>
<text text-anchor="start" x="65" y="-377.8" font-family="arial" font-size="14.00">TC1&#45;</text>
<polygon fill="none" stroke="black" points="108.5,-370 108.5,-393 133.5,-393 133.5,-370 108.5,-370"/>
<text text-anchor="start" x="116.5" y="-377.8" font-family="arial" font-size="14.00">2</text>
</g>
<!-- W2 -->
<g id="node6" class="node">
<title>W2</title>
<polygon fill="#ffffff" stroke="black" points="656,-492 461,-492 461,-358 656,-358 656,-492"/>
<polygon fill="none" stroke="black" points="461.5,-469 461.5,-492 656.5,-492 656.5,-469 461.5,-469"/>
<text text-anchor="start" x="547.5" y="-476.8" font-family="arial" font-size="14.00">W2</text>
<polygon fill="none" stroke="black" points="461.5,-446 461.5,-469 554.5,-469 554.5,-446 461.5,-446"/>
<text text-anchor="start" x="500" y="-453.8" font-family="arial" font-size="14.00">2x</text>
<polygon fill="none" stroke="black" points="554.5,-446 554.5,-469 656.5,-469 656.5,-446 554.5,-446"/>
<text text-anchor="start" x="593" y="-453.8" font-family="arial" font-size="14.00">1 m</text>
<text text-anchor="start" x="496.5" y="-432.8" font-family="arial" font-size="14.00"> </text>
<text text-anchor="start" x="463.5" y="-413.8" font-family="arial" font-size="14.00">X4:1:TC1+</text>
<text text-anchor="start" x="537.5" y="-413.8" font-family="arial" font-size="14.00"> &#160;&#160;&#160;&#160;1 &#160;&#160;&#160;</text>
<text text-anchor="start" x="584.5" y="-413.8" font-family="arial" font-size="14.00">X3:1:TC1+</text>
<polygon fill="#000000" stroke="transparent" points="461.5,-406 461.5,-408 656.5,-408 656.5,-406 461.5,-406"/>
<polygon fill="#ffffff" stroke="transparent" points="461.5,-404 461.5,-406 656.5,-406 656.5,-404 461.5,-404"/>
<polygon fill="#000000" stroke="transparent" points="461.5,-402 461.5,-404 656.5,-404 656.5,-402 461.5,-402"/>
<text text-anchor="start" x="465" y="-388.8" font-family="arial" font-size="14.00">X4:2:TC1&#45;</text>
<text text-anchor="start" x="537.5" y="-388.8" font-family="arial" font-size="14.00"> &#160;&#160;&#160;&#160;2 &#160;&#160;&#160;</text>
<text text-anchor="start" x="586" y="-388.8" font-family="arial" font-size="14.00">X3:2:TC1&#45;</text>
<polygon fill="#000000" stroke="transparent" points="461.5,-381 461.5,-383 656.5,-383 656.5,-381 461.5,-381"/>
<polygon fill="#ffffff" stroke="transparent" points="461.5,-379 461.5,-381 656.5,-381 656.5,-379 461.5,-379"/>
<polygon fill="#000000" stroke="transparent" points="461.5,-377 461.5,-379 656.5,-379 656.5,-377 461.5,-377"/>
<text text-anchor="start" x="496.5" y="-363.8" font-family="arial" font-size="14.00"> </text>
</g>
<!-- X4&#45;&#45;W2 -->
<g id="edge21" class="edge">
<title>X4:e&#45;&#45;W2:w</title>
<path fill="none" stroke="#000000" stroke-width="2" d="M134.5,-402C279.44,-402 315.67,-403 460.5,-403"/>
<path fill="none" stroke="#ffffff" stroke-width="2" d="M134.5,-404C279.39,-404 315.61,-405 460.5,-405"/>
<path fill="none" stroke="#000000" stroke-width="2" d="M134.5,-406C279.33,-406 315.56,-407 460.5,-407"/>
</g>
<!-- X4&#45;&#45;W2 -->
<g id="edge23" class="edge">
<title>X4:e&#45;&#45;W2:w</title>
<path fill="none" stroke="#000000" stroke-width="2" d="M134.5,-379C279.33,-379 315.56,-378 460.5,-378"/>
<path fill="none" stroke="#ffffff" stroke-width="2" d="M134.5,-381C279.39,-381 315.61,-380 460.5,-380"/>
<path fill="none" stroke="#000000" stroke-width="2" d="M134.5,-383C279.44,-383 315.67,-382 460.5,-382"/>
</g>
<!-- W1&#45;&#45;X2 -->
<g id="edge2" class="edge">
<title>W1:e&#45;&#45;X2:w</title>
<path fill="none" stroke="#000000" stroke-width="2" d="M786,-245C849.2,-245.22 865,-237.22 930,-237"/>
<path fill="none" stroke="#ffffff" stroke-width="2" d="M786,-247C850.1,-247 865.9,-239 930,-239"/>
<path fill="none" stroke="#000000" stroke-width="2" d="M786,-249C851,-248.78 866.8,-240.78 930,-241"/>
</g>
<!-- W1&#45;&#45;X2 -->
<g id="edge4" class="edge">
<title>W1:e&#45;&#45;X2:w</title>
<path fill="none" stroke="#000000" stroke-width="2" d="M786,-220C849.35,-220.13 865.24,-214.13 930,-214"/>
<path fill="none" stroke="#ffffff" stroke-width="2" d="M786,-222C850.06,-222 865.94,-216 930,-216"/>
<path fill="none" stroke="#000000" stroke-width="2" d="M786,-224C850.76,-223.87 866.65,-217.87 930,-218"/>
</g>
<!-- W1&#45;&#45;X2 -->
<g id="edge6" class="edge">
<title>W1:e&#45;&#45;X2:w</title>
<path fill="none" stroke="#000000" stroke-width="2" d="M786,-195C849.54,-195.06 865.49,-191.06 930,-191"/>
<path fill="none" stroke="#ffffff" stroke-width="2" d="M786,-197C850.02,-197 865.98,-193 930,-193"/>
<path fill="none" stroke="#000000" stroke-width="2" d="M786,-199C850.51,-198.94 866.46,-194.94 930,-195"/>
</g>
<!-- W1&#45;&#45;X2 -->
<g id="edge8" class="edge">
<title>W1:e&#45;&#45;X2:w</title>
<path fill="none" stroke="#000000" stroke-width="2" d="M786,-170C849.76,-170.02 865.75,-168.02 930,-168"/>
<path fill="none" stroke="#ffffff" stroke-width="2" d="M786,-172C850.01,-172 865.99,-170 930,-170"/>
<path fill="none" stroke="#000000" stroke-width="2" d="M786,-174C850.25,-173.98 866.24,-171.98 930,-172"/>
</g>
<!-- W1&#45;&#45;X2 -->
<g id="edge10" class="edge">
<title>W1:e&#45;&#45;X2:w</title>
<path fill="none" stroke="#000000" stroke-width="2" d="M786,-145C849.88,-145 865.87,-144 930,-144"/>
<path fill="none" stroke="#ffffff" stroke-width="2" d="M786,-147C850,-147 866,-146 930,-146"/>
<path fill="none" stroke="#000000" stroke-width="2" d="M786,-149C850.13,-149 866.12,-148 930,-148"/>
</g>
<!-- W1&#45;&#45;X2 -->
<g id="edge12" class="edge">
<title>W1:e&#45;&#45;X2:w</title>
<path fill="none" stroke="#000000" stroke-width="2" d="M786,-120C850.13,-120 866.12,-121 930,-121"/>
<path fill="none" stroke="#ffffff" stroke-width="2" d="M786,-122C850,-122 866,-123 930,-123"/>
<path fill="none" stroke="#000000" stroke-width="2" d="M786,-124C849.88,-124 865.87,-125 930,-125"/>
</g>
<!-- W1&#45;&#45;X2 -->
<g id="edge14" class="edge">
<title>W1:e&#45;&#45;X2:w</title>
<path fill="none" stroke="#000000" stroke-width="2" d="M786,-95C850.38,-95.03 866.36,-98.03 930,-98"/>
<path fill="none" stroke="#ffffff" stroke-width="2" d="M786,-97C850.01,-97 865.99,-100 930,-100"/>
<path fill="none" stroke="#000000" stroke-width="2" d="M786,-99C849.64,-98.97 865.62,-101.97 930,-102"/>
</g>
<!-- W1&#45;&#45;X2 -->
<g id="edge16" class="edge">
<title>W1:e&#45;&#45;X2:w</title>
<path fill="none" stroke="#000000" stroke-width="2" d="M786,-70C850.64,-70.09 866.56,-75.09 930,-75"/>
<path fill="none" stroke="#ffffff" stroke-width="2" d="M786,-72C850.04,-72 865.96,-77 930,-77"/>
<path fill="none" stroke="#000000" stroke-width="2" d="M786,-74C849.44,-73.91 865.36,-78.91 930,-79"/>
</g>
<!-- W1&#45;&#45;X2 -->
<g id="edge18" class="edge">
<title>W1:e&#45;&#45;X2:w</title>
<path fill="none" stroke="#000000" stroke-width="2" d="M786,-45C850.88,-45.17 866.73,-52.17 930,-52"/>
<path fill="none" stroke="#ffffff" stroke-width="2" d="M786,-47C850.08,-47 865.92,-54 930,-54"/>
<path fill="none" stroke="#000000" stroke-width="2" d="M786,-49C849.27,-48.83 865.12,-55.83 930,-56"/>
</g>
<!-- W1&#45;&#45;X2 -->
<g id="edge20" class="edge">
<title>W1:e&#45;&#45;X2:w</title>
<path fill="none" stroke="#000000" stroke-width="2" d="M786,-20C851.12,-20.26 866.87,-29.26 930,-29"/>
<path fill="none" stroke="#ffffff" stroke-width="2" d="M786,-22C850.12,-22 865.88,-31 930,-31"/>
<path fill="none" stroke="#000000" stroke-width="2" d="M786,-24C849.13,-23.74 864.88,-32.74 930,-33"/>
</g>
<!-- W2&#45;&#45;X3 -->
<g id="edge22" class="edge">
<title>W2:e&#45;&#45;X3:w</title>
<path fill="none" stroke="#000000" stroke-width="2" d="M657.5,-403C799.22,-403 834.67,-402 976.5,-402"/>
<path fill="none" stroke="#ffffff" stroke-width="2" d="M657.5,-405C799.28,-405 834.72,-404 976.5,-404"/>
<path fill="none" stroke="#000000" stroke-width="2" d="M657.5,-407C799.33,-407 834.78,-406 976.5,-406"/>
</g>
<!-- W2&#45;&#45;X3 -->
<g id="edge24" class="edge">
<title>W2:e&#45;&#45;X3:w</title>
<path fill="none" stroke="#000000" stroke-width="2" d="M657.5,-378C799.33,-378 834.78,-379 976.5,-379"/>
<path fill="none" stroke="#ffffff" stroke-width="2" d="M657.5,-380C799.28,-380 834.72,-381 976.5,-381"/>
<path fill="none" stroke="#000000" stroke-width="2" d="M657.5,-382C799.22,-382 834.67,-383 976.5,-383"/>
</g>
</g>
</svg>
