M48
;DRILL file {KiCad (5.0.0)} date 04/23/21 15:52:25
;FORMAT={-:-/ absolute / inch / decimal}
FMAT,2
INCH,TZ
T1C0.0276
T2C0.0315
T3C0.0354
T4C0.0394
T5C0.0433
T6C0.1063
%
G90
G05
M72
T1
X1.025Y-4.71
X1.225Y-4.53
X2.005Y-4.5264
X2.225Y-4.5264
X2.435Y-4.5264
X2.655Y-4.5264
X3.805Y-4.5241
X4.215Y-5.69
X4.885Y-5.01
X5.235Y-5.18
X5.985Y-5.05
X6.685Y-5.36
X6.905Y-4.36
X7.125Y-5.63
X7.175Y-4.68
X7.545Y-5.12
X7.635Y-5.35
X7.685Y-4.81
T2
X2.755Y-4.78
X3.155Y-4.78
X1.345Y-4.7
X1.745Y-4.7
X8.535Y-5.06
X8.535Y-5.46
X2.3066Y-4.88
X2.405Y-4.88
X2.755Y-4.9
X3.155Y-4.9
X8.785Y-4.975
X8.785Y-5.49
X8.885Y-4.975
X8.885Y-5.49
X8.985Y-4.975
X8.985Y-5.49
X9.085Y-4.975
X9.085Y-5.49
X0.925Y-5.25
X1.1219Y-5.25
X2.755Y-5.14
X3.155Y-5.14
X6.915Y-5.41
X7.315Y-5.41
X1.345Y-4.82
X1.745Y-4.82
X2.635Y-4.9716
X2.635Y-5.07
X7.135Y-5.1
X7.135Y-5.2969
X2.755Y-5.3819
X3.155Y-5.3819
X2.095Y-4.88
X2.1934Y-4.88
X8.295Y-5.06
X8.295Y-5.46
X1.975Y-4.97
X1.975Y-5.0684
X1.345Y-4.94
X1.745Y-4.94
X1.8866Y-4.88
X1.985Y-4.88
X2.755Y-4.66
X3.155Y-4.66
X8.415Y-5.06
X8.415Y-5.46
X7.135Y-4.9116
X7.135Y-5.01
X2.435Y-4.9716
X2.435Y-5.07
X8.985Y-4.88
X9.0834Y-4.88
X2.755Y-5.02
X3.155Y-5.02
X1.345Y-4.58
X1.745Y-4.58
X8.655Y-5.06
X8.655Y-5.46
X8.0761Y-4.7654
X8.0761Y-4.8441
X8.0761Y-4.9229
X8.0761Y-5.0016
X8.0761Y-5.0803
X8.0761Y-5.1591
X8.0761Y-5.2378
X8.0761Y-5.3166
X8.1549Y-4.7654
X8.1549Y-4.8441
X8.1549Y-4.9229
X8.1549Y-5.0016
X8.1549Y-5.0803
X8.1549Y-5.1591
X8.1549Y-5.2378
X8.1549Y-5.3166
X0.925Y-5.1
X1.0234Y-5.1
X2.755Y-5.26
X3.155Y-5.26
X8.315Y-4.56
X8.715Y-4.56
X7.955Y-5.0616
X7.955Y-5.16
X1.345Y-5.06
X1.745Y-5.06
X2.5366Y-4.88
X2.635Y-4.88
X2.755Y-4.54
X3.155Y-4.54
X2.195Y-4.9716
X2.195Y-5.07
X8.985Y-4.73
X9.1819Y-4.73
T3
X2.805Y-5.52
X2.905Y-5.52
X3.005Y-5.52
X3.105Y-5.52
T4
X9.955Y-5.09
X9.955Y-5.19
X9.955Y-5.29
X9.955Y-5.39
X9.955Y-4.69
X9.955Y-4.79
X9.955Y-4.89
X9.955Y-4.99
X9.295Y-4.69
X9.295Y-4.79
X9.295Y-4.89
X9.295Y-4.99
X4.125Y-5.44
X4.225Y-5.44
X4.325Y-5.44
X4.425Y-5.44
X4.525Y-5.44
X4.625Y-5.44
X4.725Y-5.44
X4.825Y-5.44
X4.925Y-5.44
X5.025Y-5.44
X5.125Y-5.44
X5.225Y-5.44
X5.325Y-5.44
X5.425Y-5.44
X5.525Y-5.44
X5.625Y-5.44
X5.725Y-5.44
X5.825Y-5.44
X5.925Y-5.44
X6.025Y-5.44
X6.125Y-5.44
X6.225Y-5.44
X6.325Y-5.44
X6.425Y-5.44
X3.565Y-4.89
X3.565Y-4.99
X3.565Y-5.09
X9.295Y-5.09
X9.295Y-5.19
X9.295Y-5.29
X9.295Y-5.39
X4.125Y-4.64
X4.225Y-4.64
X4.325Y-4.64
X4.425Y-4.64
X4.525Y-4.64
X4.625Y-4.64
X4.725Y-4.64
X4.825Y-4.64
X4.925Y-4.64
X5.025Y-4.64
X5.125Y-4.64
X5.225Y-4.64
X5.325Y-4.64
X5.425Y-4.64
X5.525Y-4.64
X5.625Y-4.64
X5.725Y-4.64
X5.825Y-4.64
X5.925Y-4.64
X6.025Y-4.64
X6.125Y-4.64
X6.225Y-4.64
X6.325Y-4.64
X6.425Y-4.64
T5
X1.255Y-5.2491
X1.255Y-5.505
X1.4322Y-5.2491
X1.4322Y-5.505
X1.895Y-5.43
X1.995Y-5.43
X2.095Y-5.43
X2.195Y-5.43
X2.295Y-5.43
X2.395Y-5.43
X2.495Y-5.43
X2.595Y-5.43
X4.125Y-4.74
X4.125Y-5.34
X4.225Y-4.74
X4.225Y-5.34
X4.325Y-4.74
X4.325Y-5.34
X4.425Y-4.74
X4.425Y-5.34
X4.525Y-4.74
X4.525Y-5.34
X4.625Y-4.74
X4.625Y-5.34
X4.725Y-4.74
X4.725Y-5.34
X4.825Y-4.74
X4.825Y-5.34
X4.925Y-4.74
X4.925Y-5.34
X5.025Y-4.74
X5.025Y-5.34
X5.125Y-4.74
X5.125Y-5.34
X5.225Y-4.74
X5.225Y-5.34
X5.325Y-4.74
X5.325Y-5.34
X5.425Y-4.74
X5.425Y-5.34
X5.525Y-4.74
X5.525Y-5.34
X5.625Y-4.74
X5.625Y-5.34
X5.725Y-4.74
X5.725Y-5.34
X5.825Y-4.74
X5.825Y-5.34
X5.925Y-4.74
X5.925Y-5.34
X6.025Y-4.74
X6.025Y-5.34
X6.125Y-4.74
X6.125Y-5.34
X6.225Y-4.74
X6.225Y-5.34
X6.325Y-4.74
X6.325Y-5.34
X6.425Y-4.74
X6.425Y-5.34
X1.57Y-5.2491
X1.57Y-5.505
X1.7472Y-5.2491
X1.7472Y-5.505
X3.425Y-5.33
X3.425Y-5.43
T6
X3.325Y-4.92
X3.325Y-5.1169
T0
M30
